<svg width="85" height="229" viewBox="0 0 85 229" fill="none" xmlns="http://www.w3.org/2000/svg">
<rect x="10" width="8" height="229" fill="#3E4E6F"/>
<mask id="path-2-inside-1_2_182" fill="white">
<path fill-rule="evenodd" clip-rule="evenodd" d="M16 217L16 12C33.6731 12 48 57.8908 48 114.5C48 171.109 33.6731 217 16 217Z"/>
</mask>
<path fill-rule="evenodd" clip-rule="evenodd" d="M16 217L16 12C33.6731 12 48 57.8908 48 114.5C48 171.109 33.6731 217 16 217Z" fill="#19A019"/>
<path d="M16 217L16 221L12 221L12 217L16 217ZM16 12L12 12L12 8L16 8L16 12ZM48 114.5L44 114.5L48 114.5ZM12 217L12 12L20 12L20 217L12 217ZM16 8C22.285 8 27.5353 12.0722 31.6741 17.6795C35.8711 23.3657 39.4824 31.3379 42.4457 40.8295C48.3871 59.8605 52 85.9062 52 114.5L44 114.5C44 86.4846 40.4495 61.2803 34.8092 43.2136C31.9816 34.1564 28.6974 27.1178 25.2376 22.4304C21.7195 17.6641 18.5516 16 16 16L16 8ZM52 114.5C52 143.094 48.3871 169.139 42.4457 188.17C39.4824 197.662 35.8711 205.634 31.6741 211.32C27.5353 216.928 22.285 221 16 221L16 213C18.5516 213 21.7195 211.336 25.2376 206.57C28.6974 201.882 31.9816 194.844 34.8092 185.786C40.4495 167.72 44 142.515 44 114.5L52 114.5Z" fill="#3E4E6F" mask="url(#path-2-inside-1_2_182)"/>
<path d="M53 101L48 105.545V121.455L53 126V101Z" fill="#D9D9D9" stroke="black"/>
<path d="M80 101L85 105.545V121.455L80 126V101Z" fill="#D9D9D9" stroke="black"/>
<rect x="53.5" y="100.5" width="26" height="26" fill="#D9D9D9" stroke="black"/>
<line x1="54" y1="104.5" x2="79" y2="104.5" stroke="black"/>
<line x1="54" y1="108.5" x2="79" y2="108.5" stroke="black"/>
<line x1="54" y1="112.5" x2="79" y2="112.5" stroke="black"/>
<line x1="54" y1="116.5" x2="79" y2="116.5" stroke="black"/>
<line x1="54" y1="121.5" x2="79" y2="121.5" stroke="black"/>
<line y1="113.5" x2="48" y2="113.5" stroke="black"/>
</svg>
