<svg width="76" height="229" viewBox="0 0 76 229" fill="none" xmlns="http://www.w3.org/2000/svg">
<rect width="8" height="229" transform="matrix(-1 0 0 1 8 0)" fill="#3E4E6F"/>
<mask id="path-2-inside-1_2_183" fill="white">
<path fill-rule="evenodd" clip-rule="evenodd" d="M7 219L7.00001 14C24.6731 14 39 59.8908 39 116.5C39 173.109 24.6731 219 7 219Z"/>
</mask>
<path fill-rule="evenodd" clip-rule="evenodd" d="M7 219L7.00001 14C24.6731 14 39 59.8908 39 116.5C39 173.109 24.6731 219 7 219Z" fill="#C8C8C8"/>
<path d="M7 219L7 223L3 223L3 219L7 219ZM7.00001 14L3.00001 14L3.00001 10L7.00001 10L7.00001 14ZM39 116.5L35 116.5L39 116.5ZM3 219L3.00001 14L11 14L11 219L3 219ZM7.00001 10C13.285 10 18.5353 14.0722 22.6741 19.6795C26.8711 25.3657 30.4824 33.3379 33.4457 42.8295C39.3871 61.8605 43 87.9062 43 116.5L35 116.5C35 88.4846 31.4495 63.2803 25.8092 45.2136C22.9816 36.1564 19.6974 29.1178 16.2376 24.4304C12.7195 19.6641 9.55156 18 7 18L7.00001 10ZM43 116.5C43 145.094 39.3871 171.139 33.4457 190.17C30.4824 199.662 26.8711 207.634 22.6741 213.32C18.5353 218.928 13.285 223 7 223L7 215C9.55156 215 12.7195 213.336 16.2376 208.57C19.6974 203.882 22.9816 196.844 25.8092 187.786C31.4495 169.72 35 144.515 35 116.5L43 116.5Z" fill="#3E4E6F" mask="url(#path-2-inside-1_2_183)"/>
<path d="M44 101L39 105.545V121.455L44 126V101Z" fill="#D9D9D9" stroke="black"/>
<path d="M71 101L76 105.545V121.455L71 126V101Z" fill="#D9D9D9" stroke="black"/>
<rect x="44.5" y="100.5" width="26" height="26" fill="#D9D9D9" stroke="black"/>
<line x1="45" y1="104.5" x2="70" y2="104.5" stroke="black"/>
<line x1="45" y1="108.5" x2="70" y2="108.5" stroke="black"/>
<line x1="45" y1="112.5" x2="70" y2="112.5" stroke="black"/>
<line x1="45" y1="116.5" x2="70" y2="116.5" stroke="black"/>
<line x1="45" y1="121.5" x2="70" y2="121.5" stroke="black"/>
</svg>
