<svg width="39" height="229" viewBox="0 0 39 229" fill="none" xmlns="http://www.w3.org/2000/svg">
<rect x="31" width="8" height="229" fill="#3E4E6F"/>
<mask id="path-2-inside-1_2_181" fill="white">
<path fill-rule="evenodd" clip-rule="evenodd" d="M32 219L32 14C14.3269 14 -4.48042e-06 59.8908 -4.48042e-06 116.5C-4.48042e-06 173.109 14.3269 219 32 219Z"/>
</mask>
<path fill-rule="evenodd" clip-rule="evenodd" d="M32 219L32 14C14.3269 14 -4.48042e-06 59.8908 -4.48042e-06 116.5C-4.48042e-06 173.109 14.3269 219 32 219Z" fill="#C8C8C8"/>
<path d="M32 219L32 223L36 223L36 219L32 219ZM32 14L36 14L36 10L32 10L32 14ZM-4.48042e-06 116.5L4 116.5L-4.48042e-06 116.5ZM36 219L36 14L28 14L28 219L36 219ZM32 10C25.715 10 20.4647 14.0722 16.3259 19.6795C12.1289 25.3657 8.51757 33.3379 5.55433 42.8295C-0.387069 61.8605 -4 87.9062 -4 116.5L4 116.5C4 88.4846 7.5505 63.2803 13.1908 45.2136C16.0184 36.1564 19.3026 29.1178 22.7624 24.4304C26.2805 19.6641 29.4484 18 32 18L32 10ZM-4 116.5C-4 145.094 -0.387069 171.139 5.55433 190.17C8.51758 199.662 12.1289 207.634 16.3259 213.32C20.4647 218.928 25.715 223 32 223L32 215C29.4484 215 26.2805 213.336 22.7624 208.57C19.3026 203.882 16.0184 196.844 13.1908 187.786C7.5505 169.72 4 144.515 4 116.5L-4 116.5Z" fill="#3E4E6F" mask="url(#path-2-inside-1_2_181)"/>
</svg>
